<svg id="svg" version="1.1" xmlns="http://www.w3.org/2000/svg" xmlns:xlink="http://www.w3.org/1999/xlink" width="400" height="233.6375488917862" viewBox="0, 0, 400,233.6375488917862"><g id="svgg"><path id="path0" d="M178.738 66.355 L 178.738 97.664 180.140 97.664 L 181.542 97.664 181.542 67.757 L 181.542 37.850 263.551 37.850 L 345.561 37.850 345.561 119.860 L 345.561 201.869 263.552 201.869 L 181.544 201.869 181.485 171.904 L 181.425 141.939 180.140 141.939 L 178.855 141.939 178.796 173.306 L 178.737 204.673 263.551 204.673 L 348.364 204.673 348.364 119.860 L 348.364 35.047 263.551 35.047 L 178.738 35.047 178.738 66.355 M77.000 104.344 C 69.307 106.058,65.070 111.734,65.070 120.327 C 65.070 127.190,67.637 131.436,73.494 134.260 C 76.763 135.837,83.043 136.229,86.957 135.101 C 99.816 131.396,102.017 111.416,90.187 105.777 C 86.682 104.106,80.891 103.477,77.000 104.344 M133.002 104.444 C 132.088 104.816,132.563 105.607,133.701 105.607 C 134.766 105.607,136.108 106.422,136.470 107.289 C 136.850 108.199,136.815 129.141,136.431 131.169 C 136.085 132.993,135.507 133.610,133.586 134.205 C 133.362 134.274,133.178 134.518,133.178 134.747 C 133.178 135.219,152.529 135.409,153.271 134.944 C 155.129 133.783,156.755 131.629,156.840 130.218 C 156.913 128.997,156.358 128.973,155.539 130.163 C 154.197 132.110,150.935 133.004,145.043 133.038 C 139.679 133.069,140.092 133.600,139.997 126.554 C 139.930 121.653,139.963 121.077,140.322 120.780 C 140.822 120.364,147.943 120.434,149.256 120.867 C 150.090 121.142,150.269 121.369,151.108 123.222 C 151.334 123.721,151.624 124.142,151.752 124.156 C 152.064 124.191,152.429 115.887,152.129 115.587 C 151.829 115.287,151.402 115.590,151.402 116.104 C 151.402 117.832,149.750 118.479,145.006 118.612 C 139.736 118.759,139.876 118.920,140.084 112.967 C 140.333 105.829,140.012 106.304,144.584 106.323 C 151.463 106.352,152.475 106.698,153.125 109.247 C 153.449 110.517,154.109 110.943,154.298 110.004 C 154.598 108.512,154.954 105.134,154.842 104.842 C 154.735 104.562,153.144 104.508,144.785 104.498 C 139.324 104.491,134.557 104.428,134.192 104.358 C 133.827 104.288,133.291 104.326,133.002 104.444 M163.558 104.368 C 161.184 104.413,159.143 104.548,159.023 104.668 C 158.654 105.037,159.288 105.538,160.293 105.673 C 163.135 106.054,163.109 105.912,163.032 120.142 L 162.967 132.126 162.425 132.886 C 162.043 133.422,161.579 133.723,160.855 133.905 C 159.754 134.182,159.132 134.697,159.484 135.039 C 159.730 135.278,171.634 135.454,171.865 135.222 C 172.277 134.810,171.650 134.382,170.287 134.142 C 166.958 133.556,166.706 133.005,166.706 126.327 L 166.706 120.911 169.083 120.845 C 171.849 120.768,172.298 121.016,173.832 123.480 C 180.237 133.765,181.655 135.203,185.631 135.446 C 188.565 135.626,190.366 134.392,187.703 134.027 C 185.372 133.708,183.426 131.565,177.285 122.560 C 175.332 119.695,175.332 119.727,177.360 118.341 C 181.766 115.331,182.303 109.244,178.421 106.313 C 175.847 104.369,174.283 104.165,163.558 104.368 M39.363 104.683 C 39.104 105.103,39.744 105.607,40.534 105.607 C 41.345 105.607,42.348 106.259,42.810 107.086 C 43.265 107.900,43.426 114.403,43.194 122.664 C 42.918 132.513,42.683 133.621,40.799 133.975 C 39.900 134.143,39.288 134.709,39.632 135.053 C 39.803 135.223,50.121 135.443,51.577 135.308 C 52.320 135.238,51.882 134.112,51.110 134.107 C 46.847 134.075,46.692 133.552,46.720 119.312 C 46.748 105.194,46.668 105.462,50.662 106.057 C 60.682 107.547,60.134 120.486,50.069 120.058 C 48.013 119.971,47.544 120.212,48.696 120.764 C 52.425 122.552,58.733 120.112,60.699 116.121 C 63.063 111.323,60.378 106.094,54.886 104.799 C 53.060 104.369,39.619 104.268,39.363 104.683 M101.282 104.736 C 100.771 105.021,101.261 105.607,102.010 105.607 C 104.980 105.607,105.091 105.994,105.269 116.964 C 105.508 131.658,105.278 133.413,103.029 134.087 C 102.074 134.373,101.790 134.921,102.512 135.085 C 103.879 135.397,113.340 134.985,113.269 134.618 C 113.218 134.349,112.825 134.181,111.956 134.056 C 109.048 133.638,108.720 132.821,108.618 125.742 C 108.555 121.390,108.616 121.045,109.450 121.032 C 109.755 121.027,119.491 130.740,121.567 133.118 L 123.248 135.045 126.945 135.046 C 131.190 135.047,131.888 134.658,129.041 133.880 C 126.974 133.314,125.801 132.340,118.501 125.121 C 112.641 119.328,112.115 118.743,112.386 118.328 C 112.550 118.078,113.904 116.860,115.395 115.621 C 116.887 114.382,119.579 112.129,121.379 110.615 C 125.061 107.515,126.976 106.195,128.370 105.797 C 129.588 105.450,130.004 105.144,129.688 104.828 C 129.320 104.461,119.555 104.535,119.432 104.906 C 119.312 105.264,119.814 105.599,120.476 105.604 C 123.876 105.628,120.355 110.118,111.332 117.268 C 108.656 119.387,108.547 119.369,108.461 116.770 C 108.233 109.909,108.872 106.445,110.519 105.605 C 111.355 105.178,111.735 104.700,111.273 104.656 C 109.825 104.517,101.555 104.583,101.282 104.736 M83.986 105.965 C 94.122 108.605,98.354 123.967,90.813 130.747 C 84.047 136.831,74.294 134.388,70.326 125.616 C 64.974 113.782,72.488 102.971,83.986 105.965 M172.056 106.195 C 177.966 107.735,179.537 115.902,174.414 118.455 C 172.792 119.264,167.481 119.348,166.909 118.575 C 166.244 117.675,166.550 106.859,167.257 106.287 C 167.950 105.727,170.099 105.686,172.056 106.195 " stroke="none" fill="#f7f7f7" fill-rule="evenodd"></path><path id="path1" d="M0.000 116.822 L 0.000 233.645 200.000 233.645 L 400.000 233.645 400.000 116.822 L 400.000 0.000 200.000 0.000 L 0.000 0.000 0.000 116.822 M348.540 119.801 L 348.481 204.790 264.019 204.853 C 217.564 204.889,179.320 204.860,179.030 204.791 L 178.505 204.664 178.505 173.243 L 178.505 141.822 180.140 141.822 L 181.776 141.822 181.776 171.729 L 181.776 201.636 263.551 201.636 L 345.327 201.636 345.327 119.743 L 345.327 37.850 263.551 37.850 L 181.776 37.850 181.776 67.874 L 181.776 97.897 180.140 97.897 L 178.505 97.897 178.505 66.511 C 178.505 49.248,178.575 35.055,178.660 34.969 C 178.746 34.883,217.017 34.813,263.707 34.813 L 348.599 34.813 348.540 119.801 M86.014 104.106 C 96.536 106.089,101.372 117.477,96.109 127.876 C 89.598 140.739,67.988 138.038,65.088 123.998 C 62.411 111.041,72.404 101.542,86.014 104.106 M248.828 104.264 C 248.949 104.553,249.780 106.682,250.675 108.995 C 252.543 113.822,257.335 125.121,259.645 130.143 C 260.617 132.257,261.887 133.520,263.277 133.755 C 264.301 133.928,264.846 134.381,264.648 134.897 C 264.482 135.329,253.881 135.384,253.524 134.954 C 253.202 134.565,253.492 134.219,254.489 133.803 C 255.758 133.275,255.797 132.726,254.777 129.754 C 253.438 125.852,252.577 124.057,251.930 123.810 C 251.298 123.570,243.490 123.557,241.706 123.794 L 240.537 123.949 239.099 126.817 C 236.523 131.953,236.608 133.165,239.603 134.036 C 240.076 134.174,240.304 134.390,240.304 134.702 C 240.304 135.160,232.768 135.726,231.484 135.364 C 230.858 135.188,230.995 134.400,231.717 134.021 C 233.214 133.237,234.400 131.357,237.109 125.467 C 246.118 105.888,247.189 103.738,247.936 103.738 C 248.412 103.738,248.672 103.892,248.828 104.264 M154.863 104.623 C 155.048 104.865,155.114 105.300,155.029 105.724 C 154.952 106.110,154.824 107.248,154.745 108.255 C 154.537 110.899,153.037 112.078,153.037 109.597 C 153.037 107.357,151.738 106.801,146.108 106.631 C 139.944 106.445,140.537 105.804,140.537 112.656 L 140.537 118.107 144.743 118.168 C 149.455 118.236,150.271 118.043,150.909 116.706 C 151.093 116.320,151.317 115.847,151.407 115.654 C 151.496 115.461,151.768 115.304,152.011 115.304 C 152.489 115.304,152.556 123.890,152.082 124.399 C 151.862 124.635,150.935 123.924,150.935 123.519 C 150.935 121.405,149.590 120.823,144.550 120.759 C 139.761 120.698,140.195 120.171,140.192 126.051 C 140.188 133.297,139.988 133.053,145.794 132.871 C 151.193 132.702,154.465 131.674,155.570 129.802 C 156.274 128.608,157.009 128.654,157.009 129.891 C 157.009 131.630,155.830 133.454,153.806 134.847 L 152.736 135.583 148.973 135.533 C 146.904 135.505,144.054 135.404,142.640 135.309 C 141.227 135.213,139.135 135.225,137.993 135.335 C 134.470 135.674,133.075 135.521,132.990 134.788 C 132.927 134.245,133.052 134.132,134.158 133.737 C 136.331 132.961,136.266 133.340,136.510 120.103 C 136.764 106.301,136.804 106.506,133.723 105.727 C 132.511 105.421,131.913 104.349,132.852 104.167 C 134.539 103.839,154.580 104.255,154.863 104.623 M174.346 104.233 C 181.867 105.817,183.780 114.241,177.575 118.455 C 176.785 118.991,176.081 119.582,176.010 119.767 C 175.710 120.548,184.113 132.006,185.708 132.992 C 186.156 133.268,187.057 133.615,187.712 133.762 C 190.483 134.383,189.025 135.865,185.804 135.701 C 181.644 135.489,180.349 134.236,174.195 124.473 C 171.993 120.980,171.740 120.794,169.166 120.794 C 166.634 120.794,166.822 120.375,166.824 126.012 C 166.826 132.472,167.116 133.172,170.076 133.844 C 171.942 134.268,172.576 134.781,171.959 135.368 C 171.670 135.642,170.596 135.672,165.537 135.547 L 159.463 135.397 159.392 134.788 C 159.318 134.154,159.735 133.878,161.269 133.544 C 162.715 133.228,162.727 133.124,162.800 120.146 C 162.882 105.696,163.070 106.556,159.623 105.620 C 158.450 105.301,158.290 104.472,159.346 104.180 C 160.345 103.904,172.995 103.948,174.346 104.233 M55.156 104.576 C 59.665 105.893,61.800 108.563,61.646 112.691 C 61.412 118.948,55.531 122.750,48.783 121.006 C 46.734 120.476,47.396 119.539,49.669 119.752 C 55.851 120.332,59.380 115.910,56.907 110.683 C 55.598 107.915,53.189 106.453,49.912 106.436 C 46.690 106.419,46.951 105.318,46.894 119.170 C 46.835 133.417,46.809 133.311,50.414 133.719 C 52.098 133.909,52.745 134.713,51.811 135.455 C 51.486 135.713,39.926 135.669,39.505 135.409 C 38.779 134.961,39.536 134.009,40.912 133.638 C 42.625 133.177,42.722 132.671,43.021 122.602 C 43.468 107.510,43.111 105.607,39.837 105.607 C 39.142 105.607,38.838 105.056,39.255 104.553 C 39.695 104.023,53.330 104.043,55.156 104.576 M111.440 104.546 C 111.813 104.995,111.590 105.308,110.606 105.719 C 109.258 106.283,109.069 107.073,108.846 113.076 C 108.730 116.190,108.737 118.410,108.863 118.536 C 109.467 119.140,121.269 108.577,121.640 107.100 C 121.829 106.346,121.620 106.125,120.374 105.762 C 119.460 105.495,119.276 105.348,119.276 104.882 L 119.276 104.322 124.182 104.278 C 129.592 104.229,129.907 104.265,129.907 104.931 C 129.907 105.260,129.591 105.520,128.797 105.846 C 126.476 106.798,125.208 107.684,120.467 111.668 C 117.781 113.925,115.047 116.202,114.392 116.729 C 113.737 117.256,112.994 117.921,112.740 118.207 L 112.280 118.726 116.829 123.230 C 125.725 132.037,126.965 133.076,129.284 133.660 C 130.468 133.958,130.966 134.385,130.758 134.927 C 130.645 135.222,130.012 135.280,126.949 135.280 L 123.276 135.280 121.276 133.132 C 116.493 127.995,109.628 121.207,109.321 121.310 C 108.869 121.462,108.865 130.763,109.315 132.072 C 109.620 132.958,110.519 133.643,111.379 133.646 C 112.927 133.651,114.177 134.632,113.314 135.166 C 112.938 135.398,102.732 135.462,102.278 135.235 C 101.539 134.865,101.843 134.352,103.140 133.778 C 105.073 132.923,105.029 133.255,104.989 119.626 C 104.949 105.922,105.063 106.484,102.168 105.745 C 101.020 105.452,100.562 104.819,101.204 104.412 C 101.795 104.038,111.119 104.159,111.440 104.546 M277.442 104.703 C 277.737 104.974,277.374 105.315,276.000 106.058 C 274.206 107.026,274.221 106.926,274.117 118.856 C 274.013 130.907,274.060 131.363,275.582 132.886 C 276.335 133.640,276.754 133.879,277.321 133.879 C 278.412 133.879,279.551 134.737,278.914 135.078 C 278.723 135.180,267.801 135.235,267.465 135.136 C 266.684 134.905,266.988 134.148,267.969 133.884 C 269.412 133.496,269.907 132.955,270.133 131.522 C 270.501 129.186,270.631 107.908,270.282 107.243 C 269.917 106.549,268.162 105.607,267.233 105.607 C 266.486 105.607,266.158 105.075,266.587 104.558 C 266.908 104.172,277.010 104.306,277.442 104.703 M77.431 105.959 C 68.202 108.448,65.825 120.202,72.735 129.179 C 78.207 136.287,89.416 135.040,93.316 126.889 L 94.276 124.883 94.274 121.495 C 94.267 111.106,86.141 103.610,77.431 105.959 M167.491 106.521 C 166.751 107.120,166.466 117.835,167.171 118.540 C 167.952 119.321,172.515 119.082,174.321 118.166 C 177.859 116.371,178.336 111.499,175.291 108.257 C 173.559 106.413,168.905 105.377,167.491 106.521 M245.742 111.618 C 244.531 113.869,242.228 119.533,242.201 120.327 L 242.173 121.145 246.385 121.208 C 251.975 121.293,251.742 121.513,250.162 117.640 C 248.785 114.267,246.981 110.696,246.594 110.578 C 246.456 110.536,246.072 111.004,245.742 111.618 M208.176 117.231 C 208.175 117.456,207.861 117.819,207.478 118.037 C 206.593 118.540,206.633 118.646,208.849 121.671 C 210.953 124.542,210.737 124.518,212.617 122.088 C 214.917 119.113,214.939 118.814,212.943 117.606 C 211.947 117.004,212.926 116.808,216.607 116.875 C 220.771 116.949,221.134 117.180,218.864 118.311 C 217.570 118.956,211.682 124.658,211.682 125.266 C 211.682 126.241,218.265 133.226,219.934 134.022 C 221.761 134.893,221.064 135.157,216.750 135.228 C 212.321 135.300,211.652 135.153,212.945 134.390 C 214.192 133.654,214.141 133.504,211.478 130.082 C 209.385 127.391,209.697 127.480,208.238 129.159 C 205.601 132.190,205.045 134.112,206.806 134.112 C 207.300 134.112,207.998 134.771,207.815 135.066 C 207.670 135.301,200.498 135.367,199.902 135.139 C 199.190 134.865,199.546 134.366,200.993 133.611 C 202.542 132.802,208.411 127.231,208.411 126.569 C 208.411 125.419,202.431 118.934,200.966 118.495 C 200.082 118.230,199.533 117.684,199.533 117.071 C 199.533 116.904,200.952 116.822,203.855 116.822 C 207.817 116.822,208.177 116.857,208.176 117.231 " stroke="none" fill="#141414" fill-rule="evenodd"></path><path id="path2" d="M247.253 104.030 C 247.124 104.191,246.387 105.689,245.616 107.360 C 244.844 109.030,243.845 111.186,243.396 112.150 C 242.946 113.113,241.555 116.110,240.304 118.808 C 233.988 132.435,233.769 132.839,232.124 133.832 C 230.226 134.979,230.650 135.155,235.487 135.227 C 238.473 135.272,239.874 135.209,240.101 135.021 C 240.577 134.626,240.135 134.213,238.908 133.904 C 236.500 133.298,236.644 131.111,239.441 125.820 C 240.627 123.576,240.531 123.606,246.681 123.602 C 252.859 123.597,252.467 123.418,253.803 126.871 C 256.091 132.786,256.112 133.225,254.147 134.062 C 253.433 134.366,253.277 135.037,253.914 135.064 C 254.138 135.073,256.583 135.100,259.346 135.122 L 264.369 135.164 264.443 134.643 C 264.507 134.197,264.381 134.101,263.559 133.969 C 262.310 133.770,260.925 132.749,260.199 131.493 C 259.058 129.521,251.068 110.566,248.967 104.848 C 248.545 103.698,247.804 103.344,247.253 104.030 M266.630 104.955 C 266.690 105.369,266.910 105.514,267.681 105.645 C 270.738 106.164,270.683 105.949,270.651 117.269 C 270.608 132.131,270.423 133.332,268.067 133.993 C 267.040 134.281,266.814 134.737,267.563 135.006 C 268.317 135.278,278.509 135.136,278.796 134.849 C 279.199 134.446,278.784 134.183,277.519 134.039 C 276.452 133.917,276.168 133.768,275.422 132.939 C 274.066 131.431,274.019 130.920,274.105 118.808 C 274.194 106.419,274.134 106.794,276.187 105.832 C 278.488 104.755,277.874 104.564,271.884 104.493 L 266.555 104.430 266.630 104.955 M247.731 112.091 C 249.989 116.399,251.630 120.739,251.123 121.061 C 250.564 121.415,242.123 121.307,241.984 120.943 C 241.823 120.524,242.607 118.338,244.258 114.603 C 246.389 109.782,246.485 109.713,247.731 112.091 M199.682 116.984 C 199.376 117.291,200.108 118.053,201.126 118.487 C 202.767 119.187,208.411 125.400,208.411 126.507 C 208.411 127.553,202.886 132.810,200.639 133.901 C 198.537 134.923,199.392 135.256,203.982 135.204 C 207.699 135.162,208.765 134.816,206.860 134.270 C 205.131 133.774,205.401 132.341,207.737 129.617 C 209.623 127.418,209.463 127.394,211.666 130.186 C 214.128 133.305,214.260 133.967,212.555 134.660 C 211.591 135.052,213.281 135.275,216.819 135.222 C 221.186 135.156,221.736 134.907,219.656 133.936 C 219.035 133.647,217.943 132.806,217.229 132.067 C 215.375 130.151,211.682 125.696,211.686 125.382 C 211.697 124.579,217.490 118.850,218.966 118.183 C 221.279 117.138,220.627 116.801,216.433 116.875 C 212.471 116.945,212.071 117.092,213.553 117.939 C 214.949 118.736,214.837 119.286,212.721 122.028 C 211.752 123.284,210.852 124.247,210.721 124.166 C 209.467 123.391,206.514 118.479,207.093 118.130 C 208.975 116.994,208.593 116.842,203.872 116.847 C 201.641 116.849,199.756 116.911,199.682 116.984 " stroke="none" fill="#eb3d38" fill-rule="evenodd"></path><path id="path3" d="M178.613 35.105 C 178.551 35.266,178.528 49.486,178.561 66.706 L 178.622 98.014 178.738 66.414 C 178.803 49.033,178.826 34.813,178.789 34.813 C 178.753 34.813,178.674 34.945,178.613 35.105 M345.385 119.684 L 345.327 201.635 263.493 201.694 L 181.659 201.753 263.500 201.811 C 328.801 201.857,345.364 201.810,345.453 201.577 C 345.514 201.416,345.536 164.486,345.503 119.509 L 345.443 37.734 345.385 119.684 M162.325 104.146 C 163.770 104.187,166.136 104.187,167.582 104.146 C 169.027 104.105,167.845 104.072,164.953 104.072 C 162.062 104.072,160.879 104.105,162.325 104.146 M103.797 104.380 C 105.178 104.421,107.439 104.421,108.820 104.380 C 110.202 104.339,109.071 104.305,106.308 104.305 C 103.546 104.305,102.415 104.339,103.797 104.380 M119.311 104.381 C 119.252 104.477,119.745 104.526,120.407 104.489 C 122.399 104.377,122.642 104.271,120.983 104.237 C 120.124 104.220,119.371 104.284,119.311 104.381 M126.227 104.377 C 126.837 104.425,127.836 104.425,128.446 104.377 C 129.057 104.329,128.557 104.290,127.336 104.290 C 126.116 104.290,125.616 104.329,126.227 104.377 M142.802 104.380 C 144.177 104.421,146.490 104.421,147.943 104.380 C 149.395 104.339,148.271 104.305,145.444 104.305 C 142.617 104.305,141.428 104.339,142.802 104.380 M267.582 104.376 C 268.064 104.426,268.852 104.426,269.334 104.376 C 269.816 104.325,269.422 104.284,268.458 104.284 C 267.494 104.284,267.100 104.325,267.582 104.376 M168.753 106.009 C 169.108 106.062,169.634 106.061,169.921 106.006 C 170.209 105.950,169.918 105.906,169.276 105.908 C 168.633 105.910,168.398 105.955,168.753 106.009 M48.773 106.244 C 49.191 106.296,49.874 106.296,50.292 106.244 C 50.710 106.192,50.368 106.150,49.533 106.150 C 48.697 106.150,48.356 106.192,48.773 106.244 M58.879 106.382 C 58.879 106.422,59.220 106.763,59.638 107.141 L 60.397 107.827 59.711 107.068 C 59.071 106.360,58.879 106.201,58.879 106.382 M143.056 106.480 C 143.670 106.529,144.617 106.528,145.159 106.479 C 145.701 106.430,145.199 106.391,144.042 106.391 C 142.886 106.392,142.442 106.432,143.056 106.480 M148.072 106.707 C 148.362 106.763,148.835 106.763,149.124 106.707 C 149.413 106.651,149.176 106.606,148.598 106.606 C 148.020 106.606,147.783 106.651,148.072 106.707 M69.267 108.236 L 68.107 109.463 69.334 108.303 C 70.009 107.665,70.561 107.113,70.561 107.077 C 70.561 106.902,70.344 107.096,69.267 108.236 M120.429 108.703 L 119.743 109.463 120.502 108.776 C 120.920 108.399,121.262 108.057,121.262 108.017 C 121.262 107.837,121.069 107.995,120.429 108.703 M105.001 111.799 C 105.001 113.855,105.037 114.665,105.081 113.599 C 105.124 112.532,105.124 110.850,105.080 109.860 C 105.036 108.871,105.001 109.743,105.001 111.799 M43.061 109.579 C 43.061 110.286,43.104 110.575,43.158 110.222 C 43.212 109.869,43.212 109.290,43.158 108.937 C 43.104 108.584,43.061 108.873,43.061 109.579 M270.665 116.005 C 270.665 120.245,270.697 122.013,270.735 119.933 C 270.774 117.853,270.774 114.383,270.736 112.223 C 270.697 110.062,270.665 111.764,270.665 116.005 M166.687 113.084 C 166.687 115.590,166.721 116.615,166.763 115.362 C 166.805 114.109,166.805 112.059,166.763 110.806 C 166.721 109.553,166.687 110.578,166.687 113.084 M89.953 109.696 C 90.389 110.146,90.798 110.514,90.863 110.514 C 90.927 110.514,90.623 110.146,90.187 109.696 C 89.751 109.246,89.342 108.879,89.277 108.879 C 89.213 108.879,89.517 109.246,89.953 109.696 M46.822 112.383 C 46.822 114.246,46.858 115.009,46.902 114.077 C 46.947 113.145,46.947 111.621,46.902 110.689 C 46.858 109.758,46.822 110.520,46.822 112.383 M108.736 112.617 C 108.736 114.352,108.773 115.061,108.818 114.194 C 108.863 113.327,108.863 111.907,108.818 111.040 C 108.773 110.172,108.736 110.882,108.736 112.617 M140.281 114.019 C 140.281 116.011,140.317 116.825,140.361 115.829 C 140.404 114.834,140.404 113.204,140.361 112.208 C 140.317 111.212,140.281 112.027,140.281 114.019 M181.142 111.565 C 181.143 112.208,181.189 112.443,181.242 112.088 C 181.296 111.733,181.295 111.207,181.239 110.920 C 181.184 110.632,181.140 110.923,181.142 111.565 M117.056 112.033 C 116.489 112.611,116.077 113.084,116.141 113.084 C 116.205 113.084,116.722 112.611,117.290 112.033 C 117.857 111.454,118.269 110.981,118.205 110.981 C 118.141 110.981,117.624 111.454,117.056 112.033 M162.953 118.458 C 162.953 121.992,162.985 123.438,163.025 121.671 C 163.065 119.904,163.065 117.012,163.025 115.245 C 162.985 113.478,162.953 114.924,162.953 118.458 M57.774 114.019 C 57.774 114.597,57.819 114.834,57.875 114.544 C 57.931 114.255,57.931 113.782,57.875 113.493 C 57.819 113.204,57.774 113.440,57.774 114.019 M68.746 116.822 C 68.746 117.272,68.794 117.456,68.853 117.231 C 68.911 117.006,68.911 116.638,68.853 116.414 C 68.794 116.189,68.746 116.373,68.746 116.822 M136.550 122.664 C 136.550 125.812,136.583 127.100,136.623 125.526 C 136.664 123.952,136.664 121.376,136.623 119.801 C 136.583 118.227,136.550 119.515,136.550 122.664 M140.624 118.289 C 140.724 118.388,142.586 118.440,144.761 118.405 L 148.715 118.340 144.579 118.224 C 142.304 118.160,140.525 118.189,140.624 118.289 M169.105 119.095 C 169.525 119.147,170.155 119.145,170.507 119.092 C 170.858 119.039,170.514 118.996,169.743 118.998 C 168.972 118.999,168.685 119.043,169.105 119.095 M43.069 121.028 C 43.069 121.992,43.110 122.386,43.161 121.904 C 43.211 121.422,43.211 120.634,43.161 120.152 C 43.110 119.670,43.069 120.064,43.069 121.028 M143.876 120.734 C 144.684 120.780,145.946 120.779,146.680 120.733 C 147.414 120.687,146.752 120.649,145.210 120.650 C 143.668 120.650,143.068 120.688,143.876 120.734 M51.697 121.429 C 52.052 121.483,52.578 121.482,52.865 121.426 C 53.153 121.371,52.862 121.327,52.220 121.329 C 51.577 121.330,51.342 121.376,51.697 121.429 M108.738 125.000 C 108.738 126.863,108.774 127.626,108.818 126.694 C 108.863 125.762,108.863 124.238,108.818 123.306 C 108.774 122.374,108.738 123.137,108.738 125.000 M166.686 125.935 C 166.686 128.312,166.720 129.284,166.763 128.096 C 166.805 126.907,166.805 124.962,166.763 123.773 C 166.720 122.585,166.686 123.557,166.686 125.935 M70.110 124.883 C 70.110 125.012,70.260 125.380,70.444 125.701 C 70.628 126.022,70.778 126.180,70.778 126.051 C 70.778 125.923,70.628 125.555,70.444 125.234 C 70.260 124.912,70.110 124.755,70.110 124.883 M270.397 127.103 C 270.397 127.810,270.441 128.099,270.494 127.745 C 270.548 127.392,270.548 126.814,270.494 126.460 C 270.441 126.107,270.397 126.396,270.397 127.103 M140.033 127.921 C 140.034 128.949,140.075 129.340,140.125 128.791 C 140.174 128.241,140.173 127.400,140.123 126.921 C 140.073 126.443,140.033 126.893,140.033 127.921 M104.983 129.322 C 104.984 130.222,105.026 130.561,105.077 130.077 C 105.128 129.592,105.127 128.856,105.075 128.441 C 105.024 128.026,104.982 128.423,104.983 129.322 M42.816 128.855 C 42.819 129.369,42.866 129.552,42.922 129.261 C 42.978 128.971,42.976 128.550,42.918 128.327 C 42.859 128.103,42.813 128.341,42.816 128.855 M123.131 129.556 C 123.829 130.263,124.452 130.841,124.517 130.841 C 124.581 130.841,124.062 130.263,123.364 129.556 C 122.666 128.849,122.043 128.271,121.979 128.271 C 121.914 128.271,122.433 128.849,123.131 129.556 M204.899 130.549 L 203.621 131.893 204.965 130.615 C 206.213 129.429,206.415 129.206,206.242 129.206 C 206.206 129.206,205.601 129.810,204.899 130.549 M136.274 130.491 C 136.276 131.005,136.324 131.187,136.380 130.897 C 136.436 130.606,136.434 130.186,136.375 129.962 C 136.317 129.739,136.271 129.977,136.274 130.491 M234.696 130.374 C 234.497 130.759,234.386 131.075,234.451 131.075 C 234.515 131.075,234.731 130.759,234.930 130.374 C 235.129 129.988,235.240 129.673,235.176 129.673 C 235.111 129.673,234.896 129.988,234.696 130.374 M68.692 131.192 C 69.128 131.641,69.537 132.009,69.601 132.009 C 69.665 132.009,69.361 131.641,68.925 131.192 C 68.489 130.742,68.080 130.374,68.016 130.374 C 67.952 130.374,68.256 130.742,68.692 131.192 M120.210 132.009 C 120.843 132.652,121.414 133.178,121.478 133.178 C 121.542 133.178,121.077 132.652,120.444 132.009 C 119.811 131.367,119.241 130.841,119.176 130.841 C 119.112 130.841,119.577 131.367,120.210 132.009 M275.635 133.183 C 276.049 133.616,276.426 133.924,276.475 133.867 C 276.523 133.809,276.185 133.454,275.723 133.078 L 274.883 132.394 275.635 133.183 M143.170 133.113 C 143.590 133.165,144.221 133.164,144.572 133.111 C 144.923 133.058,144.579 133.015,143.808 133.016 C 143.037 133.018,142.750 133.061,143.170 133.113 M154.894 133.820 L 154.089 134.696 154.965 133.891 C 155.780 133.142,155.949 132.944,155.770 132.944 C 155.731 132.944,155.337 133.338,154.894 133.820 M49.711 133.810 C 50.001 133.866,50.422 133.864,50.645 133.805 C 50.869 133.747,50.631 133.701,50.117 133.704 C 49.603 133.706,49.420 133.754,49.711 133.810 M121.729 133.718 C 121.729 133.758,122.071 134.100,122.488 134.477 L 123.248 135.164 122.561 134.404 C 121.922 133.696,121.729 133.537,121.729 133.718 M107.424 135.218 C 107.974 135.267,108.815 135.267,109.294 135.217 C 109.772 135.166,109.322 135.126,108.294 135.127 C 107.266 135.128,106.875 135.169,107.424 135.218 M138.496 135.212 C 138.786 135.268,139.207 135.266,139.430 135.207 C 139.654 135.149,139.416 135.103,138.902 135.106 C 138.388 135.108,138.205 135.156,138.496 135.212 M140.946 135.214 C 141.300 135.268,141.878 135.268,142.231 135.214 C 142.585 135.161,142.296 135.117,141.589 135.117 C 140.882 135.117,140.593 135.161,140.946 135.214 M171.834 135.267 C 171.712 135.388,171.034 135.526,170.327 135.574 L 169.042 135.661 170.357 135.704 C 171.282 135.735,171.758 135.644,171.963 135.397 C 172.282 135.012,172.188 134.916,171.834 135.267 M256.484 135.212 C 256.773 135.267,257.246 135.267,257.535 135.212 C 257.824 135.156,257.588 135.110,257.009 135.110 C 256.431 135.110,256.195 135.156,256.484 135.212 M270.972 135.212 C 271.263 135.268,271.684 135.266,271.907 135.207 C 272.130 135.149,271.893 135.103,271.379 135.106 C 270.864 135.108,270.682 135.156,270.972 135.212 M275.643 135.212 C 275.932 135.267,276.405 135.267,276.694 135.212 C 276.983 135.156,276.746 135.110,276.168 135.110 C 275.590 135.110,275.353 135.156,275.643 135.212 M44.454 135.448 C 44.809 135.502,45.335 135.500,45.622 135.445 C 45.910 135.389,45.619 135.345,44.977 135.347 C 44.334 135.349,44.099 135.394,44.454 135.448 M103.217 135.450 C 103.637 135.502,104.268 135.501,104.619 135.447 C 104.970 135.394,104.626 135.351,103.855 135.353 C 103.084 135.354,102.797 135.398,103.217 135.450 M135.339 135.448 C 135.692 135.501,136.270 135.501,136.624 135.448 C 136.977 135.394,136.688 135.350,135.981 135.350 C 135.275 135.350,134.985 135.394,135.339 135.448 M145.041 135.452 C 145.591 135.501,146.432 135.500,146.910 135.450 C 147.389 135.400,146.939 135.360,145.911 135.360 C 144.883 135.361,144.492 135.402,145.041 135.452 M163.152 135.454 C 164.025 135.499,165.392 135.499,166.190 135.453 C 166.987 135.408,166.273 135.371,164.603 135.371 C 162.932 135.372,162.279 135.409,163.152 135.454 M232.071 135.448 C 232.426 135.502,232.952 135.500,233.239 135.445 C 233.527 135.389,233.236 135.345,232.593 135.347 C 231.951 135.349,231.716 135.394,232.071 135.448 M40.596 135.679 C 40.885 135.735,41.358 135.735,41.647 135.679 C 41.936 135.623,41.700 135.578,41.121 135.578 C 40.543 135.578,40.307 135.623,40.596 135.679 M49.013 135.685 C 49.563 135.735,50.404 135.734,50.882 135.684 C 51.361 135.634,50.911 135.593,49.883 135.594 C 48.855 135.595,48.464 135.636,49.013 135.685 M185.222 135.685 C 185.768 135.734,186.662 135.734,187.208 135.685 C 187.754 135.636,187.307 135.596,186.215 135.596 C 185.123 135.596,184.676 135.636,185.222 135.685 M80.666 136.142 C 80.891 136.201,81.259 136.201,81.484 136.142 C 81.709 136.084,81.525 136.036,81.075 136.036 C 80.625 136.036,80.441 136.084,80.666 136.142 M178.618 173.248 C 178.618 190.596,178.646 197.727,178.680 189.095 C 178.714 180.463,178.714 166.269,178.680 157.553 C 178.646 148.837,178.618 155.900,178.618 173.248 M221.339 204.848 C 244.705 204.881,282.871 204.881,306.152 204.848 C 329.433 204.815,310.315 204.788,263.668 204.788 C 217.021 204.788,197.973 204.815,221.339 204.848 " stroke="none" fill="#605857" fill-rule="evenodd"></path><path id="path4" d="M263.726 34.988 L 348.364 35.047 348.423 119.860 L 348.482 204.673 348.482 119.801 L 348.481 34.930 263.785 34.929 L 179.089 34.929 263.726 34.988 M181.600 67.687 L 181.542 97.641 180.082 97.724 L 178.621 97.807 180.089 97.852 C 181.083 97.883,181.593 97.803,181.668 97.605 C 181.729 97.445,181.752 83.908,181.718 67.523 L 181.657 37.734 181.600 67.687 M80.315 103.911 C 80.990 103.958,82.094 103.958,82.769 103.911 C 83.443 103.863,82.891 103.825,81.542 103.825 C 80.193 103.825,79.641 103.863,80.315 103.911 M170.740 104.141 C 171.160 104.193,171.791 104.192,172.142 104.139 C 172.493 104.086,172.150 104.043,171.379 104.044 C 170.607 104.046,170.320 104.089,170.740 104.141 M40.837 104.378 C 41.516 104.425,42.568 104.425,43.174 104.377 C 43.780 104.329,43.224 104.290,41.939 104.291 C 40.654 104.292,40.158 104.331,40.837 104.378 M47.243 104.379 C 48.361 104.422,50.253 104.422,51.448 104.380 C 52.644 104.337,51.729 104.302,49.416 104.302 C 47.103 104.302,46.125 104.337,47.243 104.379 M135.562 104.379 C 136.424 104.423,137.896 104.424,138.833 104.379 C 139.771 104.335,139.065 104.298,137.266 104.298 C 135.467 104.297,134.700 104.334,135.562 104.379 M151.467 104.378 C 152.082 104.426,153.028 104.425,153.570 104.376 C 154.112 104.327,153.610 104.288,152.453 104.289 C 151.297 104.289,150.853 104.329,151.467 104.378 M159.031 104.381 C 158.971 104.477,160.253 104.529,161.879 104.495 C 167.336 104.383,167.906 104.297,163.507 104.251 C 161.105 104.226,159.091 104.284,159.031 104.381 M173.384 104.291 C 173.438 104.339,173.902 104.441,174.416 104.520 C 175.067 104.619,175.209 104.598,174.883 104.450 C 174.435 104.247,173.183 104.114,173.384 104.291 M105.432 104.612 C 106.171 104.658,107.380 104.658,108.119 104.612 C 108.858 104.566,108.254 104.528,106.776 104.528 C 105.298 104.528,104.693 104.566,105.432 104.612 M122.499 104.613 C 123.501 104.657,125.078 104.657,126.004 104.613 C 126.929 104.568,126.110 104.532,124.182 104.533 C 122.255 104.533,121.497 104.569,122.499 104.613 M144.226 104.612 C 144.969 104.659,146.126 104.658,146.796 104.611 C 147.466 104.564,146.857 104.526,145.444 104.527 C 144.030 104.527,143.482 104.566,144.226 104.612 M48.890 106.002 C 49.115 106.061,49.483 106.061,49.708 106.002 C 49.933 105.943,49.749 105.895,49.299 105.895 C 48.849 105.895,48.665 105.943,48.890 106.002 M74.708 106.676 C 73.802 107.167,73.905 107.337,74.825 106.869 C 75.705 106.421,75.861 106.305,75.565 106.318 C 75.447 106.323,75.061 106.484,74.708 106.676 M146.675 106.478 C 147.095 106.530,147.726 106.529,148.077 106.475 C 148.428 106.422,148.084 106.379,147.313 106.381 C 146.542 106.382,146.255 106.426,146.675 106.478 M149.944 106.707 C 150.235 106.763,150.656 106.761,150.879 106.703 C 151.102 106.644,150.864 106.598,150.350 106.601 C 149.836 106.604,149.654 106.651,149.944 106.707 M93.575 108.178 C 94.208 108.820,94.778 109.346,94.842 109.346 C 94.906 109.346,94.441 108.820,93.808 108.178 C 93.176 107.535,92.605 107.009,92.541 107.009 C 92.477 107.009,92.942 107.535,93.575 108.178 M162.935 110.047 C 162.935 111.268,162.974 111.767,163.022 111.157 C 163.070 110.546,163.070 109.547,163.022 108.937 C 162.974 108.327,162.935 108.826,162.935 110.047 M108.699 108.879 C 108.699 109.328,108.747 109.512,108.806 109.287 C 108.865 109.063,108.865 108.695,108.806 108.470 C 108.747 108.245,108.699 108.429,108.699 108.879 M140.257 109.346 C 140.257 110.053,140.301 110.342,140.354 109.988 C 140.408 109.635,140.408 109.057,140.354 108.703 C 140.301 108.350,140.257 108.639,140.257 109.346 M118.925 110.397 C 117.968 111.361,117.237 112.150,117.301 112.150 C 117.366 112.150,118.202 111.361,119.159 110.397 C 120.116 109.433,120.847 108.645,120.783 108.645 C 120.718 108.645,119.883 109.433,118.925 110.397 M153.069 109.726 C 153.052 109.999,153.194 110.353,153.385 110.512 C 153.786 110.845,154.441 110.669,154.436 110.229 C 154.433 110.005,154.380 110.012,154.226 110.256 C 153.938 110.710,153.328 110.419,153.204 109.769 C 153.108 109.268,153.099 109.264,153.069 109.726 M136.765 112.500 C 136.764 113.657,136.804 114.159,136.853 113.617 C 136.902 113.075,136.903 112.128,136.854 111.514 C 136.806 110.900,136.766 111.343,136.765 112.500 M61.521 112.266 C 61.522 113.037,61.566 113.325,61.618 112.905 C 61.670 112.485,61.669 111.854,61.616 111.503 C 61.562 111.152,61.520 111.495,61.521 112.266 M177.400 113.084 C 177.400 113.662,177.446 113.899,177.501 113.610 C 177.557 113.321,177.557 112.848,177.501 112.558 C 177.446 112.269,177.400 112.506,177.400 113.084 M180.895 112.850 C 180.895 113.300,180.943 113.484,181.002 113.259 C 181.061 113.034,181.061 112.666,181.002 112.442 C 180.943 112.217,180.895 112.401,180.895 112.850 M92.686 113.432 C 92.900 113.880,93.116 114.205,93.167 114.154 C 93.273 114.047,92.564 112.617,92.404 112.617 C 92.345 112.617,92.472 112.983,92.686 113.432 M108.453 115.582 C 108.430 117.277,108.490 118.713,108.586 118.773 C 108.683 118.833,108.734 117.919,108.699 116.742 C 108.587 112.878,108.496 112.449,108.453 115.582 M43.306 115.888 C 43.306 116.980,43.346 117.427,43.395 116.881 C 43.445 116.335,43.445 115.441,43.395 114.895 C 43.346 114.349,43.306 114.796,43.306 115.888 M140.028 115.421 C 140.028 116.256,140.070 116.598,140.122 116.180 C 140.174 115.762,140.174 115.079,140.122 114.661 C 140.070 114.244,140.028 114.585,140.028 115.421 M105.243 121.495 C 105.243 125.158,105.275 126.656,105.315 124.825 C 105.354 122.994,105.354 119.997,105.315 118.166 C 105.275 116.335,105.243 117.833,105.243 121.495 M152.024 115.421 C 152.173 115.613,152.341 116.086,152.398 116.472 L 152.500 117.173 152.535 116.442 C 152.557 115.991,152.414 115.589,152.161 115.391 C 151.805 115.112,151.788 115.116,152.024 115.421 M97.985 118.808 C 97.985 120.222,98.024 120.770,98.070 120.027 C 98.117 119.283,98.116 118.126,98.069 117.456 C 98.022 116.786,97.984 117.395,97.985 118.808 M68.530 118.107 C 68.532 118.879,68.575 119.166,68.627 118.746 C 68.679 118.326,68.678 117.695,68.625 117.344 C 68.572 116.993,68.529 117.336,68.530 118.107 M175.569 117.582 L 174.883 118.341 175.643 117.655 C 176.060 117.277,176.402 116.936,176.402 116.896 C 176.402 116.715,176.209 116.874,175.569 117.582 M56.177 118.049 L 55.491 118.808 56.250 118.122 C 56.668 117.745,57.009 117.403,57.009 117.363 C 57.009 117.182,56.817 117.341,56.177 118.049 M142.348 118.631 C 143.216 118.676,144.635 118.676,145.502 118.631 C 146.370 118.586,145.660 118.549,143.925 118.549 C 142.190 118.549,141.481 118.586,142.348 118.631 M152.162 119.509 C 152.164 120.023,152.212 120.206,152.268 119.916 C 152.324 119.625,152.322 119.204,152.263 118.981 C 152.205 118.758,152.159 118.995,152.162 119.509 M64.796 120.444 C 64.797 121.343,64.840 121.683,64.890 121.198 C 64.941 120.713,64.940 119.977,64.888 119.563 C 64.837 119.148,64.795 119.544,64.796 120.444 M113.084 119.743 C 113.520 120.193,113.929 120.561,113.994 120.561 C 114.058 120.561,113.754 120.193,113.318 119.743 C 112.882 119.293,112.473 118.925,112.408 118.925 C 112.344 118.925,112.648 119.293,113.084 119.743 M51.227 120.021 C 51.452 120.080,51.820 120.080,52.044 120.021 C 52.269 119.962,52.085 119.914,51.636 119.914 C 51.186 119.914,51.002 119.962,51.227 120.021 M94.473 121.846 C 94.473 122.874,94.515 123.265,94.564 122.716 C 94.613 122.166,94.613 121.325,94.562 120.847 C 94.512 120.368,94.472 120.818,94.473 121.846 M141.881 120.488 C 142.106 120.547,142.474 120.547,142.699 120.488 C 142.923 120.429,142.739 120.381,142.290 120.381 C 141.840 120.381,141.656 120.429,141.881 120.488 M140.207 120.887 C 140.028 121.103,139.962 122.067,140.012 123.749 L 140.088 126.285 140.137 123.668 C 140.179 121.455,140.250 121.014,140.596 120.813 C 140.821 120.682,140.886 120.572,140.741 120.568 C 140.596 120.564,140.356 120.707,140.207 120.887 M171.729 121.101 C 171.729 121.141,172.071 121.483,172.488 121.860 L 173.248 122.547 172.561 121.787 C 171.922 121.080,171.729 120.921,171.729 121.101 M115.187 126.752 C 118.205 129.772,120.726 132.243,120.791 132.243 C 120.855 132.243,118.438 129.772,115.421 126.752 C 112.403 123.732,109.881 121.262,109.817 121.262 C 109.753 121.262,112.169 123.732,115.187 126.752 M152.100 122.711 C 152.037 123.573,152.071 124.193,152.174 124.089 C 152.277 123.985,152.328 123.280,152.288 122.522 L 152.214 121.145 152.100 122.711 M115.771 122.430 C 116.273 122.944,116.736 123.364,116.800 123.364 C 116.865 123.364,116.507 122.944,116.005 122.430 C 115.503 121.916,115.040 121.495,114.975 121.495 C 114.911 121.495,115.269 121.916,115.771 122.430 M43.071 124.416 C 43.072 125.444,43.113 125.835,43.162 125.286 C 43.211 124.736,43.211 123.895,43.160 123.417 C 43.110 122.938,43.070 123.388,43.071 124.416 M119.977 126.636 C 121.643 128.306,123.060 129.673,123.124 129.673 C 123.188 129.673,121.877 128.306,120.210 126.636 C 118.543 124.965,117.127 123.598,117.063 123.598 C 116.999 123.598,118.310 124.965,119.977 126.636 M162.945 128.271 C 162.945 130.263,162.980 131.078,163.024 130.082 C 163.068 129.086,163.068 127.456,163.024 126.460 C 162.980 125.464,162.945 126.279,162.945 128.271 M93.153 127.456 C 92.939 127.904,92.813 128.271,92.872 128.271 C 93.031 128.271,93.741 126.840,93.634 126.734 C 93.583 126.683,93.367 127.008,93.153 127.456 M108.712 129.322 C 108.713 129.965,108.759 130.200,108.813 129.845 C 108.866 129.490,108.865 128.964,108.809 128.677 C 108.754 128.389,108.710 128.680,108.712 129.322 M136.515 129.322 C 136.517 129.965,136.563 130.200,136.616 129.845 C 136.670 129.490,136.669 128.964,136.613 128.677 C 136.558 128.389,136.514 128.680,136.515 129.322 M73.481 130.374 C 74.114 131.016,74.685 131.542,74.749 131.542 C 74.813 131.542,74.348 131.016,73.715 130.374 C 73.082 129.731,72.512 129.206,72.447 129.206 C 72.383 129.206,72.848 129.731,73.481 130.374 M91.121 130.257 C 90.554 130.835,90.142 131.308,90.206 131.308 C 90.271 131.308,90.788 130.835,91.355 130.257 C 91.923 129.679,92.334 129.206,92.270 129.206 C 92.206 129.206,91.689 129.679,91.121 130.257 M67.523 129.746 C 67.523 129.786,67.865 130.128,68.283 130.505 L 69.042 131.192 68.356 130.432 C 67.716 129.724,67.523 129.566,67.523 129.746 M140.012 130.491 C 140.015 131.005,140.063 131.187,140.119 130.897 C 140.174 130.606,140.172 130.186,140.114 129.962 C 140.055 129.739,140.010 129.977,140.012 130.491 M178.271 130.607 C 178.546 130.993,178.823 131.308,178.887 131.308 C 178.951 131.308,178.779 130.993,178.505 130.607 C 178.230 130.222,177.953 129.907,177.889 129.907 C 177.824 129.907,177.997 130.222,178.271 130.607 M154.673 130.876 C 154.223 131.271,154.067 131.486,154.325 131.356 C 154.752 131.140,155.810 130.127,155.585 130.150 C 155.533 130.155,155.123 130.482,154.673 130.876 M93.096 131.600 L 92.173 132.593 93.166 131.670 C 94.089 130.811,94.266 130.607,94.089 130.607 C 94.051 130.607,93.604 131.054,93.096 131.600 M124.533 130.914 C 124.533 130.954,124.874 131.296,125.292 131.674 L 126.051 132.360 125.365 131.600 C 124.725 130.893,124.533 130.734,124.533 130.914 M166.830 131.721 C 166.826 131.883,167.164 132.361,167.582 132.783 C 167.999 133.205,168.119 133.282,167.847 132.955 C 167.575 132.628,167.236 132.150,167.094 131.893 C 166.953 131.636,166.833 131.558,166.830 131.721 M140.187 131.981 C 140.187 132.209,141.095 133.059,141.193 132.923 C 141.231 132.870,141.020 132.594,140.724 132.310 C 140.429 132.025,140.187 131.877,140.187 131.981 M184.112 131.849 C 184.112 131.889,184.454 132.231,184.871 132.608 L 185.631 133.294 184.945 132.535 C 184.305 131.827,184.112 131.668,184.112 131.849 M109.990 133.353 C 110.292 133.642,110.666 133.875,110.819 133.871 C 110.973 133.867,110.888 133.748,110.631 133.605 C 110.374 133.462,110.001 133.229,109.802 133.086 C 109.603 132.944,109.687 133.064,109.990 133.353 M145.619 133.111 C 145.973 133.165,146.551 133.165,146.904 133.111 C 147.258 133.058,146.968 133.014,146.262 133.014 C 145.555 133.014,145.266 133.058,145.619 133.111 M180.140 133.017 C 180.140 133.057,180.482 133.399,180.900 133.776 L 181.659 134.463 180.973 133.703 C 180.333 132.995,180.140 132.837,180.140 133.017 M50.412 134.044 C 50.702 134.100,51.123 134.098,51.346 134.039 C 51.570 133.981,51.332 133.935,50.818 133.937 C 50.304 133.940,50.121 133.988,50.412 134.044 M80.900 134.040 C 81.124 134.098,81.492 134.098,81.717 134.040 C 81.942 133.981,81.758 133.933,81.308 133.933 C 80.859 133.933,80.675 133.981,80.900 134.040 M111.741 134.040 C 111.966 134.098,112.334 134.098,112.558 134.040 C 112.783 133.981,112.599 133.933,112.150 133.933 C 111.700 133.933,111.516 133.981,111.741 134.040 M51.888 134.735 C 51.877 135.014,51.738 135.294,51.577 135.359 C 51.348 135.452,51.350 135.481,51.584 135.496 C 51.939 135.517,52.197 134.953,52.026 134.529 C 51.960 134.364,51.898 134.457,51.888 134.735 M104.731 135.214 C 105.085 135.268,105.663 135.268,106.016 135.214 C 106.370 135.161,106.081 135.117,105.374 135.117 C 104.667 135.117,104.378 135.161,104.731 135.214 M110.684 135.215 C 111.099 135.267,111.835 135.268,112.320 135.217 C 112.804 135.167,112.465 135.124,111.565 135.123 C 110.666 135.122,110.269 135.164,110.684 135.215 M125.175 135.220 C 126.107 135.265,127.631 135.265,128.563 135.220 C 129.495 135.176,128.732 135.140,126.869 135.140 C 125.006 135.140,124.244 135.176,125.175 135.220 M136.860 135.212 C 137.151 135.268,137.571 135.266,137.795 135.207 C 138.018 135.149,137.780 135.103,137.266 135.106 C 136.752 135.108,136.570 135.156,136.860 135.212 M143.286 135.214 C 143.641 135.268,144.167 135.267,144.454 135.211 C 144.742 135.156,144.451 135.112,143.808 135.114 C 143.166 135.115,142.931 135.161,143.286 135.214 M41.764 135.449 C 42.182 135.501,42.865 135.501,43.283 135.449 C 43.700 135.398,43.359 135.355,42.523 135.355 C 41.688 135.355,41.346 135.398,41.764 135.449 M46.910 135.452 C 47.460 135.501,48.301 135.500,48.780 135.450 C 49.258 135.400,48.808 135.360,47.780 135.360 C 46.752 135.361,46.361 135.402,46.910 135.452 M133.703 135.441 C 133.928 135.500,134.296 135.500,134.521 135.441 C 134.746 135.383,134.562 135.335,134.112 135.335 C 133.662 135.335,133.478 135.383,133.703 135.441 M148.899 135.453 C 149.642 135.500,150.799 135.499,151.469 135.452 C 152.139 135.405,151.530 135.367,150.117 135.368 C 148.703 135.368,148.155 135.407,148.899 135.453 M160.222 135.445 C 160.511 135.501,160.984 135.501,161.273 135.445 C 161.563 135.390,161.326 135.344,160.748 135.344 C 160.169 135.344,159.933 135.390,160.222 135.445 M168.170 135.450 C 168.590 135.502,169.221 135.501,169.572 135.447 C 169.923 135.394,169.579 135.351,168.808 135.353 C 168.037 135.354,167.750 135.398,168.170 135.450 M79.731 135.920 C 80.470 135.967,81.679 135.967,82.418 135.920 C 83.157 135.874,82.553 135.836,81.075 135.836 C 79.597 135.836,78.992 135.874,79.731 135.920 M181.542 171.916 L 181.659 201.986 181.718 172.092 C 181.751 155.650,181.698 142.119,181.601 142.022 C 181.504 141.925,181.478 155.377,181.542 171.916 " stroke="none" fill="#848484" fill-rule="evenodd"></path></g></svg>